<mxfile host="app.diagrams.net" modified="2024-01-06T15:34:00.445Z" agent="Mozilla/5.0 (Windows NT 10.0; Win64; x64) AppleWebKit/537.36 (KHTML, like Gecko) Chrome/120.0.0.0 Safari/537.36 Edg/120.0.0.0" etag="iPaCVKu9Zk_eeWYxRNDV" version="22.1.16" type="github">
  <diagram name="第 1 页" id="rjAEBkxYEfLpDfBeMUov">
    <mxGraphModel dx="1868" dy="889" grid="0" gridSize="10" guides="1" tooltips="1" connect="1" arrows="1" fold="1" page="0" pageScale="1" pageWidth="827" pageHeight="1169" background="none" math="0" shadow="0">
      <root>
        <mxCell id="0" />
        <mxCell id="1" parent="0" />
        <mxCell id="R9GelpEuuaYugjEn5ER0-3" value="" style="edgeStyle=orthogonalEdgeStyle;rounded=0;orthogonalLoop=1;jettySize=auto;html=1;" parent="1" source="R9GelpEuuaYugjEn5ER0-1" target="R9GelpEuuaYugjEn5ER0-2" edge="1">
          <mxGeometry relative="1" as="geometry" />
        </mxCell>
        <mxCell id="R9GelpEuuaYugjEn5ER0-11" value="" style="edgeStyle=orthogonalEdgeStyle;rounded=0;orthogonalLoop=1;jettySize=auto;html=1;" parent="1" source="R9GelpEuuaYugjEn5ER0-1" target="R9GelpEuuaYugjEn5ER0-10" edge="1">
          <mxGeometry relative="1" as="geometry" />
        </mxCell>
        <mxCell id="R9GelpEuuaYugjEn5ER0-1" value="Apply Force" style="rounded=1;whiteSpace=wrap;html=1;absoluteArcSize=1;arcSize=14;strokeWidth=2;fontSize=15;" parent="1" vertex="1">
          <mxGeometry x="-78" y="300" width="110" height="60" as="geometry" />
        </mxCell>
        <mxCell id="R9GelpEuuaYugjEn5ER0-5" value="" style="edgeStyle=orthogonalEdgeStyle;rounded=0;orthogonalLoop=1;jettySize=auto;html=1;" parent="1" source="R9GelpEuuaYugjEn5ER0-2" target="R9GelpEuuaYugjEn5ER0-4" edge="1">
          <mxGeometry relative="1" as="geometry" />
        </mxCell>
        <mxCell id="R9GelpEuuaYugjEn5ER0-2" value="Predict Position &amp;amp; Velocity" style="whiteSpace=wrap;html=1;rounded=1;arcSize=14;strokeWidth=2;fontSize=15;" parent="1" vertex="1">
          <mxGeometry x="262" y="300" width="120" height="60" as="geometry" />
        </mxCell>
        <mxCell id="R9GelpEuuaYugjEn5ER0-7" value="" style="edgeStyle=orthogonalEdgeStyle;rounded=0;orthogonalLoop=1;jettySize=auto;html=1;" parent="1" source="R9GelpEuuaYugjEn5ER0-4" target="R9GelpEuuaYugjEn5ER0-6" edge="1">
          <mxGeometry relative="1" as="geometry" />
        </mxCell>
        <mxCell id="R9GelpEuuaYugjEn5ER0-4" value="Collision Detection" style="rounded=1;whiteSpace=wrap;html=1;arcSize=14;strokeWidth=2;fontSize=15;" parent="1" vertex="1">
          <mxGeometry x="437" y="300" width="120" height="60" as="geometry" />
        </mxCell>
        <mxCell id="R9GelpEuuaYugjEn5ER0-9" value="" style="edgeStyle=orthogonalEdgeStyle;rounded=0;orthogonalLoop=1;jettySize=auto;html=1;" parent="1" source="R9GelpEuuaYugjEn5ER0-6" target="R9GelpEuuaYugjEn5ER0-8" edge="1">
          <mxGeometry relative="1" as="geometry" />
        </mxCell>
        <mxCell id="R9GelpEuuaYugjEn5ER0-6" value="Solve Constraint" style="rounded=1;whiteSpace=wrap;html=1;arcSize=14;strokeWidth=2;fontSize=15;" parent="1" vertex="1">
          <mxGeometry x="611" y="300" width="120" height="60" as="geometry" />
        </mxCell>
        <mxCell id="R9GelpEuuaYugjEn5ER0-8" value="Integrate Transforms" style="whiteSpace=wrap;html=1;rounded=1;arcSize=14;strokeWidth=2;fontSize=15;" parent="1" vertex="1">
          <mxGeometry x="785" y="300" width="120" height="60" as="geometry" />
        </mxCell>
        <mxCell id="R9GelpEuuaYugjEn5ER0-10" value="Acceleration" style="whiteSpace=wrap;html=1;fontSize=15;rounded=1;arcSize=14;strokeWidth=2;" parent="1" vertex="1">
          <mxGeometry x="87" y="300" width="120" height="60" as="geometry" />
        </mxCell>
        <mxCell id="R9GelpEuuaYugjEn5ER0-16" value="" style="edgeStyle=orthogonalEdgeStyle;rounded=0;orthogonalLoop=1;jettySize=auto;html=1;" parent="1" source="R9GelpEuuaYugjEn5ER0-17" target="R9GelpEuuaYugjEn5ER0-19" edge="1">
          <mxGeometry relative="1" as="geometry" />
        </mxCell>
        <mxCell id="R9GelpEuuaYugjEn5ER0-17" value="Predict Position &amp;amp; Velocity" style="whiteSpace=wrap;html=1;rounded=1;arcSize=14;strokeWidth=2;fontSize=15;" parent="1" vertex="1">
          <mxGeometry x="265" y="414" width="120" height="60" as="geometry" />
        </mxCell>
        <mxCell id="R9GelpEuuaYugjEn5ER0-18" value="" style="edgeStyle=orthogonalEdgeStyle;rounded=0;orthogonalLoop=1;jettySize=auto;html=1;" parent="1" source="R9GelpEuuaYugjEn5ER0-19" target="R9GelpEuuaYugjEn5ER0-21" edge="1">
          <mxGeometry relative="1" as="geometry" />
        </mxCell>
        <mxCell id="R9GelpEuuaYugjEn5ER0-19" value="Collision Detection" style="rounded=1;whiteSpace=wrap;html=1;arcSize=14;strokeWidth=2;fontSize=15;" parent="1" vertex="1">
          <mxGeometry x="437" y="414" width="120" height="60" as="geometry" />
        </mxCell>
        <mxCell id="R9GelpEuuaYugjEn5ER0-20" value="" style="edgeStyle=orthogonalEdgeStyle;rounded=0;orthogonalLoop=1;jettySize=auto;html=1;" parent="1" source="R9GelpEuuaYugjEn5ER0-21" target="R9GelpEuuaYugjEn5ER0-22" edge="1">
          <mxGeometry relative="1" as="geometry" />
        </mxCell>
        <mxCell id="R9GelpEuuaYugjEn5ER0-21" value="Solve Constraint" style="rounded=1;whiteSpace=wrap;html=1;arcSize=14;strokeWidth=2;fontSize=15;" parent="1" vertex="1">
          <mxGeometry x="611" y="414" width="120" height="60" as="geometry" />
        </mxCell>
        <mxCell id="R9GelpEuuaYugjEn5ER0-22" value="Integrate Transforms" style="whiteSpace=wrap;html=1;rounded=1;arcSize=14;strokeWidth=2;fontSize=15;" parent="1" vertex="1">
          <mxGeometry x="785" y="414" width="120" height="60" as="geometry" />
        </mxCell>
      </root>
    </mxGraphModel>
  </diagram>
</mxfile>
